# xmcd
#
# Track frame offsets:
#	150
#	4804
#	10948
#	19341
#	26373
#	33295
#	37704
#	45479
#	51597
#	59452
#	70530
#	79308
#	86748
#	98726
#	113549
#	128226
#	135454
#	141298
#	146079
#	153209
#	161633
#	170695
#	177340
#	183642
#	189513
#	196089
#	201864
#	208762
#	214423
#	224970
#	230467
#	238528
#	251676
#	262146
#	267922
#	276324
#	282422
#	286266
#	293257
#	301422
#
# Disc length: 4092 seconds
#
# Revision: 2
# Processed by: cddbd v1.5.2PL0 Copyright (c) Steve Scherf et al.
# Submitted via: EasyCDDAExtractor 16.0.6.1
#
DISCID=590ffa28
DTITLE=風車圖書 - 卡布利島世界歌謠
DYEAR=2009
DGENRE=Baby
TTITLE0=繞圈圈（巴西）
TTITLE1=我要航行到大海洋（澳洲）
TTITLE2=三隻熊（韓國）
TTITLE3=歡樂生活（德國）
TTITLE4=熱滾滾的水（美國）
TTITLE5=美味大蛋糕（英國）
TTITLE6=麥叔叔有田地（美國）
TTITLE7=我想睡了！那你呢？（英國）
TTITLE8=當我們同在一起（美國）
TTITLE9=搖籃曲（德國）
TTITLE10=我是小小音樂家（美國）
TTITLE11=好朋友來探望我了！（美國）
TTITLE12=江河奔流（埃及）
TTITLE13=老農賣小牛（美國）
TTITLE14=散塔露淇亞（義大利）
TTITLE15=紅河谷（美國）
TTITLE16=拍拍手（馬來西亞）
TTITLE17=小青蛙（瑞典）
TTITLE18=玩捉迷藏（丹麥）
TTITLE19=野玫瑰（奧地利）
TTITLE20=快樂歌（德國）
TTITLE21=賓果（美國）
TTITLE22=一個大胖子（美國）
TTITLE23=黑柏油（美國）
TTITLE24=虹彩妹妹學管簫（中國）
TTITLE25=瑪莉有隻小綿羊（美國）
TTITLE26=用力搖你的槳（美國）
TTITLE27=倫敦鐵橋垮下來（英國）
TTITLE28=聖誕鈴聲（美國）
TTITLE29=大象（日本）
TTITLE30=小星星（法國）
TTITLE31=卡布利島（義大利）
TTITLE32=西北雨（台灣）
TTITLE33=下雨歌（日本）
TTITLE34=阿里郎（韓國）
TTITLE35=放學回家（中國）
TTITLE36=小小鳥兒（肯亞）
TTITLE37=爬呀爬呀小蜘蛛（美國）
TTITLE38=珍貴的友情（美國）
TTITLE39=時鐘滴答滴（英國）
EXTD=YEAR: 2009
EXTT0=
EXTT1=
EXTT2=
EXTT3=
EXTT4=
EXTT5=
EXTT6=
EXTT7=
EXTT8=
EXTT9=
EXTT10=
EXTT11=
EXTT12=
EXTT13=
EXTT14=
EXTT15=
EXTT16=
EXTT17=
EXTT18=
EXTT19=
EXTT20=
EXTT21=
EXTT22=
EXTT23=
EXTT24=
EXTT25=
EXTT26=
EXTT27=
EXTT28=
EXTT29=
EXTT30=
EXTT31=
EXTT32=
EXTT33=
EXTT34=
EXTT35=
EXTT36=
EXTT37=
EXTT38=
EXTT39=
PLAYORDER=
